<svg viewBox="0 0 24 24" fill="none" xmlns="http://www.w3.org/2000/svg">
  <!-- Left weight stack (multiple plates) -->
  <rect x="1.5" y="8" width="4.5" height="8" rx="0.5" fill="#374151" stroke="#1f2937" stroke-width="1"/>
  
  <!-- Individual weight plates separation -->
  <line x1="2" y1="9.5" x2="5.5" y2="9.5" stroke="#1f2937" stroke-width="0.8"/>
  <line x1="2" y1="11" x2="5.5" y2="11" stroke="#1f2937" stroke-width="0.8"/>
  <line x1="2" y1="12.5" x2="5.5" y2="12.5" stroke="#1f2937" stroke-width="0.8"/>
  <line x1="2" y1="14" x2="5.5" y2="14" stroke="#1f2937" stroke-width="0.8"/>
  <line x1="2" y1="15.5" x2="5.5" y2="15.5" stroke="#1f2937" stroke-width="0.8"/>
  
  <!-- Left handle grip -->
  <rect x="6" y="10" width="2.5" height="4" rx="0.3" fill="#6b7280" stroke="#374151" stroke-width="1"/>
  
  <!-- Grip texture lines -->
  <line x1="6.3" y1="10.5" x2="6.3" y2="13.5" stroke="#9ca3af" stroke-width="0.4"/>
  <line x1="6.8" y1="10.5" x2="6.8" y2="13.5" stroke="#9ca3af" stroke-width="0.4"/>
  <line x1="7.3" y1="10.5" x2="7.3" y2="13.5" stroke="#9ca3af" stroke-width="0.4"/>
  <line x1="7.8" y1="10.5" x2="7.8" y2="13.5" stroke="#9ca3af" stroke-width="0.4"/>
  <line x1="8.3" y1="10.5" x2="8.3" y2="13.5" stroke="#9ca3af" stroke-width="0.4"/>
  
  <!-- Center bar -->
  <rect x="8.5" y="11.5" width="7" height="1" rx="0.2" fill="#374151" stroke="#1f2937" stroke-width="0.8"/>
  
  <!-- Right handle grip -->
  <rect x="15.5" y="10" width="2.5" height="4" rx="0.3" fill="#6b7280" stroke="#374151" stroke-width="1"/>
  
  <!-- Right grip texture lines -->
  <line x1="15.7" y1="10.5" x2="15.7" y2="13.5" stroke="#9ca3af" stroke-width="0.4"/>
  <line x1="16.2" y1="10.5" x2="16.2" y2="13.5" stroke="#9ca3af" stroke-width="0.4"/>
  <line x1="16.7" y1="10.5" x2="16.7" y2="13.5" stroke="#9ca3af" stroke-width="0.4"/>
  <line x1="17.2" y1="10.5" x2="17.2" y2="13.5" stroke="#9ca3af" stroke-width="0.4"/>
  <line x1="17.7" y1="10.5" x2="17.7" y2="13.5" stroke="#9ca3af" stroke-width="0.4"/>
  
  <!-- Right weight stack (multiple plates) -->
  <rect x="18" y="8" width="4.5" height="8" rx="0.5" fill="#374151" stroke="#1f2937" stroke-width="1"/>
  
  <!-- Right weight plates separation -->
  <line x1="18.5" y1="9.5" x2="22" y2="9.5" stroke="#1f2937" stroke-width="0.8"/>
  <line x1="18.5" y1="11" x2="22" y2="11" stroke="#1f2937" stroke-width="0.8"/>
  <line x1="18.5" y1="12.5" x2="22" y2="12.5" stroke="#1f2937" stroke-width="0.8"/>
  <line x1="18.5" y1="14" x2="22" y2="14" stroke="#1f2937" stroke-width="0.8"/>
  <line x1="18.5" y1="15.5" x2="22" y2="15.5" stroke="#1f2937" stroke-width="0.8"/>
  
  <!-- Weight numbers on plates -->
  <text x="3.5" y="10.2" font-family="Arial" font-size="1.8" font-weight="bold" fill="#ffffff" text-anchor="middle">10</text>
  <text x="3.5" y="12.7" font-family="Arial" font-size="1.8" font-weight="bold" fill="#ffffff" text-anchor="middle">5</text>
  <text x="3.5" y="15.2" font-family="Arial" font-size="1.8" font-weight="bold" fill="#ffffff" text-anchor="middle">2.5</text>
  
  <text x="20.5" y="10.2" font-family="Arial" font-size="1.8" font-weight="bold" fill="#ffffff" text-anchor="middle">10</text>
  <text x="20.5" y="12.7" font-family="Arial" font-size="1.8" font-weight="bold" fill="#ffffff" text-anchor="middle">5</text>
  <text x="20.5" y="15.2" font-family="Arial" font-size="1.8" font-weight="bold" fill="#ffffff" text-anchor="middle">2.5</text>
  
  <!-- Locking collars -->
  <rect x="1" y="10.5" width="0.8" height="3" rx="0.2" fill="#6b7280" stroke="#374151" stroke-width="0.5"/>
  <rect x="22.2" y="10.5" width="0.8" height="3" rx="0.2" fill="#6b7280" stroke="#374151" stroke-width="0.5"/>
</svg>
