<svg viewBox="0 0 24 24" fill="none" xmlns="http://www.w3.org/2000/svg">
  <!-- Left weight -->
  <rect x="2" y="8" width="4" height="8" rx="1" fill="#000000" stroke="#000000" stroke-width="1"/>
  <!-- Left handle grip -->
  <rect x="6" y="10" width="3" height="4" fill="#666666" stroke="#000000" stroke-width="0.5"/>
  
  <!-- Center bar -->
  <rect x="9" y="11" width="6" height="2" fill="#000000" stroke="#000000" stroke-width="0.5"/>
  
  <!-- Right handle grip -->
  <rect x="15" y="10" width="3" height="4" fill="#666666" stroke="#000000" stroke-width="0.5"/>
  <!-- Right weight -->
  <rect x="18" y="8" width="4" height="8" rx="1" fill="#000000" stroke="#000000" stroke-width="1"/>
  
  <!-- Weight plates detail lines -->
  <line x1="3" y1="9" x2="5" y2="9" stroke="white" stroke-width="0.5"/>
  <line x1="3" y1="10.5" x2="5" y2="10.5" stroke="white" stroke-width="0.5"/>
  <line x1="3" y1="13.5" x2="5" y2="13.5" stroke="white" stroke-width="0.5"/>
  <line x1="3" y1="15" x2="5" y2="15" stroke="white" stroke-width="0.5"/>
  
  <line x1="19" y1="9" x2="21" y2="9" stroke="white" stroke-width="0.5"/>
  <line x1="19" y1="10.5" x2="21" y2="10.5" stroke="white" stroke-width="0.5"/>
  <line x1="19" y1="13.5" x2="21" y2="13.5" stroke="white" stroke-width="0.5"/>
  <line x1="19" y1="15" x2="21" y2="15" stroke="white" stroke-width="0.5"/>
  
  <!-- Handle texture lines -->
  <line x1="6.5" y1="10" x2="6.5" y2="14" stroke="#333333" stroke-width="0.3"/>
  <line x1="7.5" y1="10" x2="7.5" y2="14" stroke="#333333" stroke-width="0.3"/>
  <line x1="8.5" y1="10" x2="8.5" y2="14" stroke="#333333" stroke-width="0.3"/>
  
  <line x1="15.5" y1="10" x2="15.5" y2="14" stroke="#333333" stroke-width="0.3"/>
  <line x1="16.5" y1="10" x2="16.5" y2="14" stroke="#333333" stroke-width="0.3"/>
  <line x1="17.5" y1="10" x2="17.5" y2="14" stroke="#333333" stroke-width="0.3"/>
</svg>
