<svg viewBox="0 0 24 24" fill="none" xmlns="http://www.w3.org/2000/svg">
  <!-- Left weight stack -->
  <rect x="1" y="8" width="5" height="8" rx="0.8" fill="#374151" stroke="#1f2937" stroke-width="1"/>
  
  <!-- Left handle grip with texture -->
  <rect x="6" y="10" width="2.5" height="4" fill="#6b7280" stroke="#374151" stroke-width="0.8"/>
  <line x1="6.5" y1="10" x2="6.5" y2="14" stroke="#9ca3af" stroke-width="0.3"/>
  <line x1="7.5" y1="10" x2="7.5" y2="14" stroke="#9ca3af" stroke-width="0.3"/>
  <line x1="8.5" y1="10" x2="8.5" y2="14" stroke="#9ca3af" stroke-width="0.3"/>
  
  <!-- Center bar -->
  <rect x="8.5" y="11.5" width="7" height="1" fill="#374151" stroke="#1f2937" stroke-width="0.5"/>
  
  <!-- Right handle grip with texture -->
  <rect x="15.5" y="10" width="2.5" height="4" fill="#6b7280" stroke="#374151" stroke-width="0.8"/>
  <line x1="15.8" y1="10" x2="15.8" y2="14" stroke="#9ca3af" stroke-width="0.3"/>
  <line x1="16.8" y1="10" x2="16.8" y2="14" stroke="#9ca3af" stroke-width="0.3"/>
  <line x1="17.8" y1="10" x2="17.8" y2="14" stroke="#9ca3af" stroke-width="0.3"/>
  
  <!-- Right weight stack -->
  <rect x="18" y="8" width="5" height="8" rx="0.8" fill="#374151" stroke="#1f2937" stroke-width="1"/>
  
  <!-- Weight plate separations -->
  <line x1="1.5" y1="9.5" x2="5.5" y2="9.5" stroke="#1f2937" stroke-width="0.5"/>
  <line x1="1.5" y1="11" x2="5.5" y2="11" stroke="#1f2937" stroke-width="0.5"/>
  <line x1="1.5" y1="12.5" x2="5.5" y2="12.5" stroke="#1f2937" stroke-width="0.5"/>
  <line x1="1.5" y1="14" x2="5.5" y2="14" stroke="#1f2937" stroke-width="0.5"/>
  <line x1="1.5" y1="15.5" x2="5.5" y2="15.5" stroke="#1f2937" stroke-width="0.5"/>
  
  <line x1="18.5" y1="9.5" x2="22.5" y2="9.5" stroke="#1f2937" stroke-width="0.5"/>
  <line x1="18.5" y1="11" x2="22.5" y2="11" stroke="#1f2937" stroke-width="0.5"/>
  <line x1="18.5" y1="12.5" x2="22.5" y2="12.5" stroke="#1f2937" stroke-width="0.5"/>
  <line x1="18.5" y1="14" x2="22.5" y2="14" stroke="#1f2937" stroke-width="0.5"/>
  <line x1="18.5" y1="15.5" x2="22.5" y2="15.5" stroke="#1f2937" stroke-width="0.5"/>
  
  <!-- Weight numbers -->
  <text x="3.5" y="10.5" font-family="Arial" font-size="2" font-weight="bold" fill="#ffffff" text-anchor="middle">10</text>
  <text x="3.5" y="13" font-family="Arial" font-size="2" font-weight="bold" fill="#ffffff" text-anchor="middle">5</text>
  <text x="3.5" y="15.5" font-family="Arial" font-size="2" font-weight="bold" fill="#ffffff" text-anchor="middle">2.5</text>
  
  <text x="20.5" y="10.5" font-family="Arial" font-size="2" font-weight="bold" fill="#ffffff" text-anchor="middle">10</text>
  <text x="20.5" y="13" font-family="Arial" font-size="2" font-weight="bold" fill="#ffffff" text-anchor="middle">5</text>
  <text x="20.5" y="15.5" font-family="Arial" font-size="2" font-weight="bold" fill="#ffffff" text-anchor="middle">2.5</text>
</svg>
