<svg viewBox="0 0 24 24" fill="none" xmlns="http://www.w3.org/2000/svg">
  <!-- Field background -->
  <rect x="2" y="3" width="20" height="18" rx="1" fill="white" stroke="#000000" stroke-width="0.5"/>
  
  <!-- Center circle -->
  <circle cx="12" cy="12" r="3" fill="none" stroke="#000000" stroke-width="0.8"/>
  <circle cx="12" cy="12" r="0.5" fill="#000000"/>
  
  <!-- Center line -->
  <line x1="12" y1="3" x2="12" y2="21" stroke="#000000" stroke-width="0.8"/>
  
  <!-- Goal areas -->
  <rect x="2" y="8" width="4" height="8" fill="none" stroke="#000000" stroke-width="0.8"/>
  <rect x="18" y="8" width="4" height="8" fill="none" stroke="#000000" stroke-width="0.8"/>
  
  <!-- Goal posts -->
  <line x1="2" y1="9" x2="2" y2="15" stroke="#000000" stroke-width="1.2"/>
  <line x1="6" y1="9" x2="6" y2="15" stroke="#000000" stroke-width="1.2"/>
  <line x1="18" y1="9" x2="18" y2="15" stroke="#000000" stroke-width="1.2"/>
  <line x1="22" y1="9" x2="22" y2="15" stroke="#000000" stroke-width="1.2"/>
  
  <!-- Penalty areas -->
  <rect x="2" y="6" width="6" height="12" fill="none" stroke="#000000" stroke-width="0.8"/>
  <rect x="16" y="6" width="6" height="12" fill="none" stroke="#000000" stroke-width="0.8"/>
  
  <!-- Penalty spots -->
  <circle cx="8" cy="12" r="0.4" fill="#000000"/>
  <circle cx="16" cy="12" r="0.4" fill="#000000"/>
  
  <!-- Corner arcs -->
  <path d="M 2 3 Q 4 3 4 5" fill="none" stroke="#000000" stroke-width="0.8"/>
  <path d="M 22 3 Q 20 3 20 5" fill="none" stroke="#000000" stroke-width="0.8"/>
  <path d="M 2 21 Q 4 21 4 19" fill="none" stroke="#000000" stroke-width="0.8"/>
  <path d="M 22 21 Q 20 21 20 19" fill="none" stroke="#000000" stroke-width="0.8"/>
</svg>
