<svg viewBox="0 0 24 24" fill="none" xmlns="http://www.w3.org/2000/svg">
  <!-- Field background with grass texture -->
  <rect x="2" y="3" width="20" height="18" rx="1" fill="#22c55e" stroke="#000000" stroke-width="0.8"/>
  
  <!-- Grass texture lines -->
  <line x1="3" y1="4" x2="3" y2="5" stroke="#16a34a" stroke-width="0.3"/>
  <line x1="4" y1="4" x2="4" y2="5" stroke="#16a34a" stroke-width="0.3"/>
  <line x1="5" y1="4" x2="5" y2="5" stroke="#16a34a" stroke-width="0.3"/>
  <line x1="19" y1="4" x2="19" y2="5" stroke="#16a34a" stroke-width="0.3"/>
  <line x1="20" y1="4" x2="20" y2="5" stroke="#16a34a" stroke-width="0.3"/>
  <line x1="21" y1="4" x2="21" y2="5" stroke="#16a34a" stroke-width="0.3"/>
  
  <!-- Center circle with proper dimensions -->
  <circle cx="12" cy="12" r="3.5" fill="none" stroke="#ffffff" stroke-width="0.8"/>
  <circle cx="12" cy="12" r="0.4" fill="#ffffff"/>
  
  <!-- Center line -->
  <line x1="12" y1="3" x2="12" y2="21" stroke="#ffffff" stroke-width="0.8"/>
  
  <!-- Goal areas with proper proportions -->
  <rect x="2" y="9" width="3" height="6" fill="none" stroke="#ffffff" stroke-width="0.8"/>
  <rect x="19" y="9" width="3" height="6" fill="none" stroke="#ffffff" stroke-width="0.8"/>
  
  <!-- Goal posts with realistic thickness -->
  <line x1="2" y1="9.5" x2="2" y2="14.5" stroke="#ffffff" stroke-width="1.5"/>
  <line x1="5" y1="9.5" x2="5" y2="14.5" stroke="#ffffff" stroke-width="1.5"/>
  <line x1="19" y1="9.5" x2="19" y2="14.5" stroke="#ffffff" stroke-width="1.5"/>
  <line x1="22" y1="9.5" x2="22" y2="14.5" stroke="#ffffff" stroke-width="1.5"/>
  
  <!-- Crossbar -->
  <line x1="2" y1="9.5" x2="5" y2="9.5" stroke="#ffffff" stroke-width="1.5"/>
  <line x1="19" y1="9.5" x2="22" y2="9.5" stroke="#ffffff" stroke-width="1.5"/>
  
  <!-- Penalty areas with proper size -->
  <rect x="2" y="7" width="6" height="10" fill="none" stroke="#ffffff" stroke-width="0.8"/>
  <rect x="16" y="7" width="6" height="10" fill="none" stroke="#ffffff" stroke-width="0.8"/>
  
  <!-- Penalty spots -->
  <circle cx="8.5" cy="12" r="0.3" fill="#ffffff"/>
  <circle cx="15.5" cy="12" r="0.3" fill="#ffffff"/>
  
  <!-- Corner arcs -->
  <path d="M 2 3 Q 3 3 3 4" fill="none" stroke="#ffffff" stroke-width="0.8"/>
  <path d="M 22 3 Q 21 3 21 4" fill="none" stroke="#ffffff" stroke-width="0.8"/>
  <path d="M 2 21 Q 3 21 3 20" fill="none" stroke="#ffffff" stroke-width="0.8"/>
  <path d="M 22 21 Q 21 21 21 20" fill="none" stroke="#ffffff" stroke-width="0.8"/>
  
  <!-- Touch lines -->
  <line x1="2" y1="3" x2="2" y2="21" stroke="#ffffff" stroke-width="0.8"/>
  <line x1="22" y1="3" x2="22" y2="21" stroke="#ffffff" stroke-width="0.8"/>
  <line x1="2" y1="3" x2="22" y2="3" stroke="#ffffff" stroke-width="0.8"/>
  <line x1="2" y1="21" x2="22" y2="21" stroke="#ffffff" stroke-width="0.8"/>
</svg>
