<svg viewBox="0 0 24 24" fill="none" xmlns="http://www.w3.org/2000/svg">
  <!-- Main ball circle -->
  <circle cx="12" cy="12" r="10" fill="white" stroke="#000000" stroke-width="1"/>
  
  <!-- Central black pentagon -->
  <path d="M12 6.5 L15.3 9.2 L14.2 12.8 L9.8 12.8 L8.7 9.2 Z" fill="#000000"/>
  
  <!-- White hexagons around pentagon -->
  <path d="M8.7 9.2 L12 6.5 L15.3 9.2 L15.3 14.8 L12 17.5 L8.7 14.8 Z" fill="white" stroke="#000000" stroke-width="0.8"/>
  
  <path d="M15.3 9.2 L18.6 11.9 L17.5 15.5 L14.2 12.8 L15.3 9.2 Z" fill="white" stroke="#000000" stroke-width="0.8"/>
  
  <path d="M14.2 12.8 L17.5 15.5 L14.2 18.2 L10.9 15.5 L12 11.9 Z" fill="white" stroke="#000000" stroke-width="0.8"/>
  
  <path d="M9.8 12.8 L8.7 9.2 L5.4 11.9 L6.5 15.5 L10.9 12.8 Z" fill="white" stroke="#000000" stroke-width="0.8"/>
  
  <path d="M8.7 14.8 L6.5 15.5 L9.8 18.2 L12 17.5 L8.7 14.8 Z" fill="white" stroke="#000000" stroke-width="0.8"/>
  
  <!-- Additional black pentagons -->
  <path d="M12 17.5 L8.7 14.8 L9.8 11.2 L14.2 11.2 L15.3 14.8 Z" fill="#000000"/>
  
  <!-- Highlight crescents at top -->
  <path d="M8.5 7.5 C 9.5 6.5, 11 6.5, 12 7.5" fill="white" stroke="none"/>
  <path d="M16 7.5 C 17 6.5, 18.5 6.5, 19.5 7.5" fill="white" stroke="none"/>
</svg>
