<svg viewBox="0 0 24 24" fill="none" xmlns="http://www.w3.org/2000/svg">
  <!-- Main ball shape -->
  <circle cx="12" cy="12" r="10" fill="white" stroke="#000000" stroke-width="1"/>
  
  <!-- Classic soccer ball pattern -->
  <!-- Pentagon in center -->
  <path d="M12 4.5 L15.9 7.8 L14.1 12.4 L9.9 12.4 L8.1 7.8 Z" fill="#000000"/>
  
  <!-- Hexagons around pentagon -->
  <path d="M8.1 7.8 L12 4.5 L15.9 7.8 L15.9 12.2 L12 15.5 L8.1 12.2 Z" fill="none" stroke="#000000" stroke-width="0.8"/>
  
  <path d="M15.9 7.8 L19.8 11.1 L18 15.7 L14.1 12.4 L15.9 7.8 Z" fill="none" stroke="#000000" stroke-width="0.8"/>
  
  <path d="M14.1 12.4 L18 15.7 L14.1 19 L10.2 15.7 L12 11.1 Z" fill="none" stroke="#000000" stroke-width="0.8"/>
  
  <path d="M9.9 12.4 L8.1 7.8 L4.2 11.1 L6 15.7 L10.2 12.4 Z" fill="none" stroke="#000000" stroke-width="0.8"/>
  
  <path d="M8.1 12.2 L6 15.7 L9.9 19 L12 15.5 L8.1 12.2 Z" fill="none" stroke="#000000" stroke-width="0.8"/>
  
  <!-- Additional pentagon -->
  <path d="M12 19.5 L8.1 16.2 L9.9 11.6 L14.1 11.6 L15.9 16.2 Z" fill="#000000"/>
  
  <!-- Highlight for 3D effect -->
  <circle cx="10" cy="10" r="2" fill="rgba(255,255,255,0.3)"/>
</svg>
