<svg viewBox="0 0 24 24" fill="none" xmlns="http://www.w3.org/2000/svg">
  <!-- Main ball circle -->
  <circle cx="12" cy="12" r="10" fill="white" stroke="#000000" stroke-width="1.5"/>
  
  <!-- Central pentagon -->
  <path d="M12 5.5 L15 8 L14 12 L10 12 L9 8 Z" fill="#000000"/>
  
  <!-- Hexagons around pentagon -->
  <path d="M9 8 L12 5.5 L15 8 L15 16 L12 18.5 L9 16 Z" fill="white" stroke="#000000" stroke-width="0.8"/>
  
  <path d="M15 8 L18 10.5 L17 14.5 L14 12 L15 8 Z" fill="white" stroke="#000000" stroke-width="0.8"/>
  
  <path d="M14 12 L17 14.5 L14 17 L11 14.5 L12 11 Z" fill="white" stroke="#000000" stroke-width="0.8"/>
  
  <path d="M10 12 L9 8 L6 10.5 L7 14.5 L11 12 Z" fill="white" stroke="#000000" stroke-width="0.8"/>
  
  <path d="M9 16 L7 14.5 L10 17 L12 15.5 L9 16 Z" fill="white" stroke="#000000" stroke-width="0.8"/>
  
  <!-- Additional pentagon at bottom -->
  <path d="M12 18.5 L9 16 L10 12 L14 12 L15 16 Z" fill="#000000"/>
  
  <!-- Side pentagons -->
  <path d="M6 10.5 L9 8 L12 11 L11 14.5 L8 13 Z" fill="#000000"/>
  <path d="M18 10.5 L15 8 L12 11 L13 14.5 L16 13 Z" fill="#000000"/>
</svg>
